<?xml version="1.0" encoding="UTF-8"?><svg xmlns="http://www.w3.org/2000/svg" xmlns:xlink="http://www.w3.org/1999/xlink" fill-opacity="1" color-rendering="auto" color-interpolation="auto" text-rendering="auto" stroke="black" stroke-linecap="square" width="428" stroke-miterlimit="10" shape-rendering="auto" stroke-opacity="1" fill="black" stroke-dasharray="none" font-weight="normal" stroke-width="1" height="221" font-family="'Dialog'" font-style="normal" stroke-linejoin="miter" font-size="12px" stroke-dashoffset="0" image-rendering="auto">
  <!--Generated by ySVG 2.5-->
  <defs id="genericDefs"/>
  <g>
    <defs id="defs1">
      <clipPath clipPathUnits="userSpaceOnUse" id="clipPath1">
        <path d="M0 0 L428 0 L428 221 L0 221 L0 0 Z"/>
      </clipPath>
      <clipPath clipPathUnits="userSpaceOnUse" id="clipPath2">
        <path d="M352 144 L780 144 L780 365 L352 365 L352 144 Z"/>
      </clipPath>
    </defs>
    <g fill="white" text-rendering="geometricPrecision" shape-rendering="geometricPrecision" transform="translate(-352,-144)" stroke="white">
      <rect x="352" width="428" height="221" y="144" clip-path="url(#clipPath2)" stroke="none"/>
    </g>
    <g fill="rgb(216,216,255)" text-rendering="geometricPrecision" shape-rendering="geometricPrecision" transform="matrix(1,0,0,1,-352,-144)" stroke="rgb(216,216,255)">
      <rect x="667.742" width="80" height="100" y="249.5" clip-path="url(#clipPath2)" stroke="none"/>
    </g>
    <g text-rendering="geometricPrecision" stroke-miterlimit="1.45" shape-rendering="geometricPrecision" font-family="sans-serif" transform="matrix(1,0,0,1,-352,-144)" stroke-linecap="butt">
      <text x="680.0594" xml:space="preserve" y="340.8633" clip-path="url(#clipPath2)" stroke="none">Machine 4</text>
      <rect x="667.742" y="249.5" clip-path="url(#clipPath2)" fill="none" width="80" stroke-dasharray="6,2" height="100"/>
    </g>
    <g fill="rgb(216,216,255)" text-rendering="geometricPrecision" shape-rendering="geometricPrecision" transform="matrix(1,0,0,1,-352,-144)" stroke="rgb(216,216,255)">
      <rect x="567.742" width="80" height="100" y="249.5" clip-path="url(#clipPath2)" stroke="none"/>
    </g>
    <g text-rendering="geometricPrecision" stroke-miterlimit="1.45" shape-rendering="geometricPrecision" font-family="sans-serif" transform="matrix(1,0,0,1,-352,-144)" stroke-linecap="butt">
      <text x="580.0594" xml:space="preserve" y="340.8633" clip-path="url(#clipPath2)" stroke="none">Machine 3</text>
      <rect x="567.742" y="249.5" clip-path="url(#clipPath2)" fill="none" width="80" stroke-dasharray="6,2" height="100"/>
    </g>
    <g fill="rgb(216,216,255)" text-rendering="geometricPrecision" shape-rendering="geometricPrecision" transform="matrix(1,0,0,1,-352,-144)" stroke="rgb(216,216,255)">
      <rect x="467.742" width="80" height="100" y="249.5" clip-path="url(#clipPath2)" stroke="none"/>
    </g>
    <g text-rendering="geometricPrecision" stroke-miterlimit="1.45" shape-rendering="geometricPrecision" font-family="sans-serif" transform="matrix(1,0,0,1,-352,-144)" stroke-linecap="butt">
      <text x="480.0594" xml:space="preserve" y="340.8633" clip-path="url(#clipPath2)" stroke="none">Machine 2</text>
      <rect x="467.742" y="249.5" clip-path="url(#clipPath2)" fill="none" width="80" stroke-dasharray="6,2" height="100"/>
    </g>
    <g fill="rgb(216,216,255)" text-rendering="geometricPrecision" shape-rendering="geometricPrecision" transform="matrix(1,0,0,1,-352,-144)" stroke="rgb(216,216,255)">
      <rect x="367.742" width="80" height="100" y="249.5" clip-path="url(#clipPath2)" stroke="none"/>
    </g>
    <g text-rendering="geometricPrecision" stroke-miterlimit="1.45" shape-rendering="geometricPrecision" font-family="sans-serif" transform="matrix(1,0,0,1,-352,-144)" stroke-linecap="butt">
      <text x="380.0594" xml:space="preserve" y="340.8633" clip-path="url(#clipPath2)" stroke="none">Machine 1</text>
      <rect x="367.742" y="249.5" clip-path="url(#clipPath2)" fill="none" width="80" stroke-dasharray="6,2" height="100"/>
    </g>
    <g fill="rgb(255,153,51)" text-rendering="geometricPrecision" shape-rendering="geometricPrecision" transform="matrix(1,0,0,1,-352,-144)" stroke="rgb(255,153,51)">
      <rect x="374.16" y="281.5" clip-path="url(#clipPath2)" width="30" rx="4" ry="4" height="10" stroke="none"/>
    </g>
    <g text-rendering="geometricPrecision" stroke-miterlimit="1.45" shape-rendering="geometricPrecision" transform="matrix(1,0,0,1,-352,-144)" stroke-linecap="butt">
      <rect x="374.16" y="281.5" clip-path="url(#clipPath2)" fill="none" width="30" rx="4" ry="4" height="10"/>
    </g>
    <g fill="rgb(255,153,51)" text-rendering="geometricPrecision" shape-rendering="geometricPrecision" transform="matrix(1,0,0,1,-352,-144)" stroke="rgb(255,153,51)">
      <rect x="393.74" y="306.5" clip-path="url(#clipPath2)" width="30" rx="4" ry="4" height="10" stroke="none"/>
    </g>
    <g text-rendering="geometricPrecision" stroke-miterlimit="1.45" shape-rendering="geometricPrecision" transform="matrix(1,0,0,1,-352,-144)" stroke-linecap="butt">
      <rect x="393.74" y="306.5" clip-path="url(#clipPath2)" fill="none" width="30" rx="4" ry="4" height="10"/>
    </g>
    <g fill="rgb(255,153,51)" text-rendering="geometricPrecision" shape-rendering="geometricPrecision" transform="matrix(1,0,0,1,-352,-144)" stroke="rgb(255,153,51)">
      <rect x="411.324" y="281.5" clip-path="url(#clipPath2)" width="30" rx="4" ry="4" height="10" stroke="none"/>
    </g>
    <g text-rendering="geometricPrecision" stroke-miterlimit="1.45" shape-rendering="geometricPrecision" transform="matrix(1,0,0,1,-352,-144)" stroke-linecap="butt">
      <rect x="411.324" y="281.5" clip-path="url(#clipPath2)" fill="none" width="30" rx="4" ry="4" height="10"/>
    </g>
    <g fill="rgb(255,153,51)" text-rendering="geometricPrecision" shape-rendering="geometricPrecision" transform="matrix(1,0,0,1,-352,-144)" stroke="rgb(255,153,51)">
      <rect x="393.74" y="256.5" clip-path="url(#clipPath2)" width="30" rx="4" ry="4" height="10" stroke="none"/>
    </g>
    <g text-rendering="geometricPrecision" stroke-miterlimit="1.45" shape-rendering="geometricPrecision" transform="matrix(1,0,0,1,-352,-144)" stroke-linecap="butt">
      <rect x="393.74" y="256.5" clip-path="url(#clipPath2)" fill="none" width="30" rx="4" ry="4" height="10"/>
    </g>
    <g fill="rgb(255,153,51)" text-rendering="geometricPrecision" shape-rendering="geometricPrecision" transform="matrix(1,0,0,1,-352,-144)" stroke="rgb(255,153,51)">
      <rect x="473.162" y="282" clip-path="url(#clipPath2)" width="30" rx="4" ry="4" height="10" stroke="none"/>
    </g>
    <g text-rendering="geometricPrecision" stroke-miterlimit="1.45" shape-rendering="geometricPrecision" transform="matrix(1,0,0,1,-352,-144)" stroke-linecap="butt">
      <rect x="473.162" y="282" clip-path="url(#clipPath2)" fill="none" width="30" rx="4" ry="4" height="10"/>
    </g>
    <g fill="rgb(255,153,51)" text-rendering="geometricPrecision" shape-rendering="geometricPrecision" transform="matrix(1,0,0,1,-352,-144)" stroke="rgb(255,153,51)">
      <rect x="492.742" y="307" clip-path="url(#clipPath2)" width="30" rx="4" ry="4" height="10" stroke="none"/>
    </g>
    <g text-rendering="geometricPrecision" stroke-miterlimit="1.45" shape-rendering="geometricPrecision" transform="matrix(1,0,0,1,-352,-144)" stroke-linecap="butt">
      <rect x="492.742" y="307" clip-path="url(#clipPath2)" fill="none" width="30" rx="4" ry="4" height="10"/>
    </g>
    <g fill="rgb(255,153,51)" text-rendering="geometricPrecision" shape-rendering="geometricPrecision" transform="matrix(1,0,0,1,-352,-144)" stroke="rgb(255,153,51)">
      <rect x="510.326" y="282" clip-path="url(#clipPath2)" width="30" rx="4" ry="4" height="10" stroke="none"/>
    </g>
    <g text-rendering="geometricPrecision" stroke-miterlimit="1.45" shape-rendering="geometricPrecision" transform="matrix(1,0,0,1,-352,-144)" stroke-linecap="butt">
      <rect x="510.326" y="282" clip-path="url(#clipPath2)" fill="none" width="30" rx="4" ry="4" height="10"/>
    </g>
    <g fill="rgb(255,153,51)" text-rendering="geometricPrecision" shape-rendering="geometricPrecision" transform="matrix(1,0,0,1,-352,-144)" stroke="rgb(255,153,51)">
      <rect x="492.742" y="257" clip-path="url(#clipPath2)" width="30" rx="4" ry="4" height="10" stroke="none"/>
    </g>
    <g text-rendering="geometricPrecision" stroke-miterlimit="1.45" shape-rendering="geometricPrecision" transform="matrix(1,0,0,1,-352,-144)" stroke-linecap="butt">
      <rect x="492.742" y="257" clip-path="url(#clipPath2)" fill="none" width="30" rx="4" ry="4" height="10"/>
    </g>
    <g fill="rgb(255,153,51)" text-rendering="geometricPrecision" shape-rendering="geometricPrecision" transform="matrix(1,0,0,1,-352,-144)" stroke="rgb(255,153,51)">
      <rect x="573.162" y="282" clip-path="url(#clipPath2)" width="30" rx="4" ry="4" height="10" stroke="none"/>
    </g>
    <g text-rendering="geometricPrecision" stroke-miterlimit="1.45" shape-rendering="geometricPrecision" transform="matrix(1,0,0,1,-352,-144)" stroke-linecap="butt">
      <rect x="573.162" y="282" clip-path="url(#clipPath2)" fill="none" width="30" rx="4" ry="4" height="10"/>
    </g>
    <g fill="rgb(255,153,51)" text-rendering="geometricPrecision" shape-rendering="geometricPrecision" transform="matrix(1,0,0,1,-352,-144)" stroke="rgb(255,153,51)">
      <rect x="592.742" y="307" clip-path="url(#clipPath2)" width="30" rx="4" ry="4" height="10" stroke="none"/>
    </g>
    <g text-rendering="geometricPrecision" stroke-miterlimit="1.45" shape-rendering="geometricPrecision" transform="matrix(1,0,0,1,-352,-144)" stroke-linecap="butt">
      <rect x="592.742" y="307" clip-path="url(#clipPath2)" fill="none" width="30" rx="4" ry="4" height="10"/>
    </g>
    <g fill="rgb(255,153,51)" text-rendering="geometricPrecision" shape-rendering="geometricPrecision" transform="matrix(1,0,0,1,-352,-144)" stroke="rgb(255,153,51)">
      <rect x="610.326" y="282" clip-path="url(#clipPath2)" width="30" rx="4" ry="4" height="10" stroke="none"/>
    </g>
    <g text-rendering="geometricPrecision" stroke-miterlimit="1.45" shape-rendering="geometricPrecision" transform="matrix(1,0,0,1,-352,-144)" stroke-linecap="butt">
      <rect x="610.326" y="282" clip-path="url(#clipPath2)" fill="none" width="30" rx="4" ry="4" height="10"/>
    </g>
    <g fill="rgb(255,153,51)" text-rendering="geometricPrecision" shape-rendering="geometricPrecision" transform="matrix(1,0,0,1,-352,-144)" stroke="rgb(255,153,51)">
      <rect x="592.742" y="257" clip-path="url(#clipPath2)" width="30" rx="4" ry="4" height="10" stroke="none"/>
    </g>
    <g text-rendering="geometricPrecision" stroke-miterlimit="1.45" shape-rendering="geometricPrecision" transform="matrix(1,0,0,1,-352,-144)" stroke-linecap="butt">
      <rect x="592.742" y="257" clip-path="url(#clipPath2)" fill="none" width="30" rx="4" ry="4" height="10"/>
    </g>
    <g fill="rgb(255,153,51)" text-rendering="geometricPrecision" shape-rendering="geometricPrecision" transform="matrix(1,0,0,1,-352,-144)" stroke="rgb(255,153,51)">
      <rect x="674.16" y="282" clip-path="url(#clipPath2)" width="30" rx="4" ry="4" height="10" stroke="none"/>
    </g>
    <g text-rendering="geometricPrecision" stroke-miterlimit="1.45" shape-rendering="geometricPrecision" transform="matrix(1,0,0,1,-352,-144)" stroke-linecap="butt">
      <rect x="674.16" y="282" clip-path="url(#clipPath2)" fill="none" width="30" rx="4" ry="4" height="10"/>
    </g>
    <g fill="rgb(255,153,51)" text-rendering="geometricPrecision" shape-rendering="geometricPrecision" transform="matrix(1,0,0,1,-352,-144)" stroke="rgb(255,153,51)">
      <rect x="693.74" y="307" clip-path="url(#clipPath2)" width="30" rx="4" ry="4" height="10" stroke="none"/>
    </g>
    <g text-rendering="geometricPrecision" stroke-miterlimit="1.45" shape-rendering="geometricPrecision" transform="matrix(1,0,0,1,-352,-144)" stroke-linecap="butt">
      <rect x="693.74" y="307" clip-path="url(#clipPath2)" fill="none" width="30" rx="4" ry="4" height="10"/>
    </g>
    <g fill="rgb(255,153,51)" text-rendering="geometricPrecision" shape-rendering="geometricPrecision" transform="matrix(1,0,0,1,-352,-144)" stroke="rgb(255,153,51)">
      <rect x="711.324" y="282" clip-path="url(#clipPath2)" width="30" rx="4" ry="4" height="10" stroke="none"/>
    </g>
    <g text-rendering="geometricPrecision" stroke-miterlimit="1.45" shape-rendering="geometricPrecision" transform="matrix(1,0,0,1,-352,-144)" stroke-linecap="butt">
      <rect x="711.324" y="282" clip-path="url(#clipPath2)" fill="none" width="30" rx="4" ry="4" height="10"/>
    </g>
    <g fill="rgb(255,153,51)" text-rendering="geometricPrecision" shape-rendering="geometricPrecision" transform="matrix(1,0,0,1,-352,-144)" stroke="rgb(255,153,51)">
      <rect x="693.74" y="257" clip-path="url(#clipPath2)" width="30" rx="4" ry="4" height="10" stroke="none"/>
    </g>
    <g text-rendering="geometricPrecision" stroke-miterlimit="1.45" shape-rendering="geometricPrecision" transform="matrix(1,0,0,1,-352,-144)" stroke-linecap="butt">
      <rect x="693.74" y="257" clip-path="url(#clipPath2)" fill="none" width="30" rx="4" ry="4" height="10"/>
    </g>
    <g fill="rgb(153,204,255)" text-rendering="geometricPrecision" shape-rendering="geometricPrecision" transform="matrix(1,0,0,1,-352,-144)" stroke="rgb(153,204,255)">
      <rect x="367.742" width="380" height="30" y="159.5" clip-path="url(#clipPath2)" stroke="none"/>
    </g>
    <g text-rendering="geometricPrecision" stroke-miterlimit="1.45" shape-rendering="geometricPrecision" font-family="sans-serif" transform="matrix(1,0,0,1,-352,-144)" stroke-linecap="butt">
      <text x="473.5164" xml:space="preserve" y="179.2139" clip-path="url(#clipPath2)" stroke="none">Parameter Server: W    =    Σ W</text>
      <rect fill="none" x="367.742" width="380" height="30" y="159.5" clip-path="url(#clipPath2)"/>
      <text x="380.3113" xml:space="preserve" font-size="8px" y="238.1426" clip-path="url(#clipPath2)" stroke="none">i</text>
      <text x="445.4149" xml:space="preserve" font-size="8px" y="217.1426" clip-path="url(#clipPath2)" stroke="none">i+1,1</text>
      <text x="480.3113" xml:space="preserve" font-size="8px" y="238.1426" clip-path="url(#clipPath2)" stroke="none">i</text>
      <text x="580.3113" xml:space="preserve" font-size="8px" y="238.1426" clip-path="url(#clipPath2)" stroke="none">i</text>
      <text x="680.3113" xml:space="preserve" font-size="8px" y="238.1426" clip-path="url(#clipPath2)" stroke="none">i</text>
      <text x="545.4149" xml:space="preserve" font-size="8px" y="217.1426" clip-path="url(#clipPath2)" stroke="none">i+1,2</text>
      <text x="645.4149" xml:space="preserve" font-size="8px" y="217.1426" clip-path="url(#clipPath2)" stroke="none">i+1,3</text>
      <text x="745.4149" xml:space="preserve" font-size="8px" y="217.1426" clip-path="url(#clipPath2)" stroke="none">i+1,4</text>
      <text x="585.7508" xml:space="preserve" font-size="8px" y="183.1426" clip-path="url(#clipPath2)" stroke="none">i+1</text>
      <text x="620.1131" xml:space="preserve" font-size="6px" y="184.3569" clip-path="url(#clipPath2)" stroke="none">j=1</text>
      <text x="621.5316" xml:space="preserve" font-size="6px" y="169.3569" clip-path="url(#clipPath2)" stroke="none">4</text>
      <text x="641.7508" xml:space="preserve" font-size="8px" y="183.1426" clip-path="url(#clipPath2)" stroke="none">i+1,j</text>
      <text x="609.9754" xml:space="preserve" font-size="8px" y="183.1426" clip-path="url(#clipPath2)" stroke="none">4</text>
      <text x="609.9754" xml:space="preserve" font-size="8px" y="173.1426" clip-path="url(#clipPath2)" stroke="none">1</text>
      <text x="609.9754" xml:space="preserve" font-size="8px" y="174.1426" clip-path="url(#clipPath2)" stroke="none">_</text>
      <path fill="none" d="M404.8202 306.4951 L395.572 294.687" clip-path="url(#clipPath2)"/>
      <path d="M393.1056 291.5378 L393.3148 301.5356 L396.1886 295.4742 L402.7621 294.1364 Z" clip-path="url(#clipPath2)" stroke="none"/>
      <path fill="none" d="M412.2602 306.4951 L420.4794 294.8096" clip-path="url(#clipPath2)"/>
      <path d="M422.7806 291.5378 L413.2705 294.6295 L419.9041 295.6275 L423.0858 301.5332 Z" clip-path="url(#clipPath2)" stroke="none"/>
      <path fill="none" d="M393.0798 281.4951 L402.328 269.687" clip-path="url(#clipPath2)"/>
      <path d="M404.7944 266.5378 L395.1379 269.1364 L401.7114 270.4742 L404.5852 276.5356 Z" clip-path="url(#clipPath2)" stroke="none"/>
      <path fill="none" d="M422.8038 281.4951 L414.5846 269.8096" clip-path="url(#clipPath2)"/>
      <path d="M412.2834 266.5378 L411.9782 276.5332 L415.1599 270.6275 L421.7935 269.6295 Z" clip-path="url(#clipPath2)" stroke="none"/>
      <path fill="none" d="M503.8222 306.9951 L494.574 295.187" clip-path="url(#clipPath2)"/>
      <path d="M492.1076 292.0378 L492.3167 302.0356 L495.1906 295.9742 L501.7641 294.6365 Z" clip-path="url(#clipPath2)" stroke="none"/>
      <path fill="none" d="M511.2622 306.9951 L519.4814 295.3096" clip-path="url(#clipPath2)"/>
      <path d="M521.7826 292.0378 L512.2725 295.1295 L518.9061 296.1275 L522.0878 302.0332 Z" clip-path="url(#clipPath2)" stroke="none"/>
      <path fill="none" d="M492.0818 281.9951 L501.33 270.187" clip-path="url(#clipPath2)"/>
      <path d="M503.7964 267.0378 L494.1399 269.6365 L500.7134 270.9742 L503.5873 277.0356 Z" clip-path="url(#clipPath2)" stroke="none"/>
      <path fill="none" d="M521.8058 281.9951 L513.5866 270.3096" clip-path="url(#clipPath2)"/>
      <path d="M511.2854 267.0378 L510.9802 277.0332 L514.1619 271.1275 L520.7955 270.1295 Z" clip-path="url(#clipPath2)" stroke="none"/>
      <path fill="none" d="M603.8222 306.9951 L594.574 295.187" clip-path="url(#clipPath2)"/>
      <path d="M592.1076 292.0379 L592.3168 302.0357 L595.1906 295.9742 L601.7641 294.6364 Z" clip-path="url(#clipPath2)" stroke="none"/>
      <path fill="none" d="M611.2622 306.9951 L619.4814 295.3096" clip-path="url(#clipPath2)"/>
      <path d="M621.7826 292.0378 L612.2725 295.1295 L618.9061 296.1275 L622.0878 302.0332 Z" clip-path="url(#clipPath2)" stroke="none"/>
      <path fill="none" d="M592.0818 281.9951 L601.33 270.187" clip-path="url(#clipPath2)"/>
      <path d="M603.7964 267.0379 L594.1399 269.6364 L600.7134 270.9742 L603.5872 277.0357 Z" clip-path="url(#clipPath2)" stroke="none"/>
      <path fill="none" d="M621.8058 281.9951 L613.5866 270.3096" clip-path="url(#clipPath2)"/>
      <path d="M611.2854 267.0378 L610.9802 277.0332 L614.1619 271.1275 L620.7955 270.1295 Z" clip-path="url(#clipPath2)" stroke="none"/>
      <path fill="none" d="M704.8202 306.9951 L695.572 295.187" clip-path="url(#clipPath2)"/>
      <path d="M693.1057 292.0378 L693.3148 302.0356 L696.1886 295.9742 L702.7621 294.6365 Z" clip-path="url(#clipPath2)" stroke="none"/>
      <path fill="none" d="M712.2603 306.9951 L720.4794 295.3096" clip-path="url(#clipPath2)"/>
      <path d="M722.7806 292.0378 L713.2705 295.1295 L719.9041 296.1275 L723.0858 302.0332 Z" clip-path="url(#clipPath2)" stroke="none"/>
      <path fill="none" d="M693.0798 281.9951 L702.328 270.187" clip-path="url(#clipPath2)"/>
      <path d="M704.7944 267.0378 L695.1379 269.6365 L701.7114 270.9742 L704.5853 277.0356 Z" clip-path="url(#clipPath2)" stroke="none"/>
      <path fill="none" d="M722.8038 281.9951 L714.5847 270.3096" clip-path="url(#clipPath2)"/>
      <path d="M712.2834 267.0379 L711.9783 277.0332 L715.16 271.1275 L721.7935 270.1295 Z" clip-path="url(#clipPath2)" stroke="none"/>
      <path fill="none" d="M387.742 189.5222 L387.742 241.5264" clip-path="url(#clipPath2)"/>
      <path d="M387.742 249.5264 L392.742 237.5264 L387.742 240.5264 L382.742 237.5264 Z" clip-path="url(#clipPath2)" stroke="none"/>
      <text x="369.4158" xml:space="preserve" y="234.7383" clip-path="url(#clipPath2)" stroke="none">W</text>
      <path fill="none" d="M427.742 249.5191 L427.742 197.5149" clip-path="url(#clipPath2)"/>
      <path d="M427.742 189.5149 L422.742 201.5149 L427.742 198.5149 L432.742 201.5149 Z" clip-path="url(#clipPath2)" stroke="none"/>
      <text x="434.742" xml:space="preserve" y="213.6895" clip-path="url(#clipPath2)" stroke="none">W</text>
      <path fill="none" d="M488.162 189.4722 L488.162 241.5164" clip-path="url(#clipPath2)"/>
      <path d="M488.162 249.5164 L493.162 237.5164 L488.162 240.5164 L483.162 237.5164 Z" clip-path="url(#clipPath2)" stroke="none"/>
      <text x="469.8358" xml:space="preserve" y="234.7383" clip-path="url(#clipPath2)" stroke="none">W</text>
      <path fill="none" d="M528.162 249.5146 L528.162 197.481" clip-path="url(#clipPath2)"/>
      <path d="M528.162 189.481 L523.162 201.481 L528.162 198.481 L533.162 201.481 Z" clip-path="url(#clipPath2)" stroke="none"/>
      <text x="535.162" xml:space="preserve" y="213.6895" clip-path="url(#clipPath2)" stroke="none">W</text>
      <path fill="none" d="M588.162 189.4802 L588.162 241.518" clip-path="url(#clipPath2)"/>
      <path d="M588.162 249.518 L593.162 237.518 L588.162 240.518 L583.162 237.518 Z" clip-path="url(#clipPath2)" stroke="none"/>
      <text x="569.8358" xml:space="preserve" y="234.7383" clip-path="url(#clipPath2)" stroke="none">W</text>
      <path fill="none" d="M628.162 249.5146 L628.162 197.481" clip-path="url(#clipPath2)"/>
      <path d="M628.162 189.481 L623.162 201.481 L628.162 198.481 L633.162 201.481 Z" clip-path="url(#clipPath2)" stroke="none"/>
      <text x="635.162" xml:space="preserve" y="213.6895" clip-path="url(#clipPath2)" stroke="none">W</text>
      <path fill="none" d="M687.742 189.4924 L687.742 241.5205" clip-path="url(#clipPath2)"/>
      <path d="M687.742 249.5205 L692.742 237.5205 L687.742 240.5205 L682.742 237.5205 Z" clip-path="url(#clipPath2)" stroke="none"/>
      <text x="669.4158" xml:space="preserve" y="234.7383" clip-path="url(#clipPath2)" stroke="none">W</text>
      <path fill="none" d="M727.742 249.5268 L727.742 197.524" clip-path="url(#clipPath2)"/>
      <path d="M727.742 189.524 L722.742 201.524 L727.742 198.524 L732.742 201.524 Z" clip-path="url(#clipPath2)" stroke="none"/>
      <text x="734.742" xml:space="preserve" y="213.6895" clip-path="url(#clipPath2)" stroke="none">W</text>
    </g>
  </g>
</svg>
